<svg width="400" height="300" viewBox="0 0 400 300" fill="none" xmlns="http://www.w3.org/2000/svg">
  <!-- Background -->
  <rect width="400" height="300" fill="white"/>
  
  <!-- Illustration Elements -->
  <!-- AI Server Rack -->
  <rect x="100" y="120" width="80" height="140" rx="4" fill="#E6F0FF" stroke="#3B82F6" stroke-width="2"/>
  <rect x="110" y="130" width="60" height="15" rx="2" fill="#BFDBFE" stroke="#3B82F6" stroke-width="1"/>
  <rect x="110" y="155" width="60" height="15" rx="2" fill="#BFDBFE" stroke="#3B82F6" stroke-width="1"/>
  <rect x="110" y="180" width="60" height="15" rx="2" fill="#BFDBFE" stroke="#3B82F6" stroke-width="1"/>
  <rect x="110" y="205" width="60" height="15" rx="2" fill="#BFDBFE" stroke="#3B82F6" stroke-width="1"/>
  <rect x="110" y="230" width="60" height="15" rx="2" fill="#BFDBFE" stroke="#3B82F6" stroke-width="1"/>
  
  <!-- Data Visualization -->
  <rect x="220" y="150" width="120" height="110" rx="4" fill="#E6F0FF" stroke="#3B82F6" stroke-width="2"/>
  <path d="M230 210L250 190L270 230L290 170L310 210L330 180" stroke="#3B82F6" stroke-width="2" stroke-linecap="round" stroke-linejoin="round"/>
  <circle cx="250" cy="190" r="4" fill="#3B82F6"/>
  <circle cx="270" cy="230" r="4" fill="#3B82F6"/>
  <circle cx="290" cy="170" r="4" fill="#3B82F6"/>
  <circle cx="310" cy="210" r="4" fill="#3B82F6"/>
  <circle cx="330" cy="180" r="4" fill="#3B82F6"/>
  <rect x="230" y="160" width="100" height="15" rx="2" fill="#BFDBFE"/>
  
  <!-- Neural Network -->
  <circle cx="180" cy="70" r="40" fill="#E6F0FF" stroke="#3B82F6" stroke-width="2"/>
  <circle cx="160" cy="60" r="6" fill="#3B82F6"/>
  <circle cx="200" cy="60" r="6" fill="#3B82F6"/>
  <circle cx="170" cy="85" r="6" fill="#3B82F6"/>
  <circle cx="190" cy="85" r="6" fill="#3B82F6"/>
  <line x1="160" y1="60" x2="170" y2="85" stroke="#3B82F6" stroke-width="1.5"/>
  <line x1="160" y1="60" x2="190" y2="85" stroke="#3B82F6" stroke-width="1.5"/>
  <line x1="200" y1="60" x2="170" y2="85" stroke="#3B82F6" stroke-width="1.5"/>
  <line x1="200" y1="60" x2="190" y2="85" stroke="#3B82F6" stroke-width="1.5"/>
  
  <!-- Connecting Lines -->
  <path d="M180 110L180 120" stroke="#3B82F6" stroke-width="2" stroke-dasharray="4 2"/>
  <path d="M180 260L220 260L220 205" stroke="#3B82F6" stroke-width="2" stroke-dasharray="4 2"/>
  
  <!-- Service Text -->
  <text x="200" y="30" text-anchor="middle" font-family="Arial" font-size="18" font-weight="bold" fill="#3B82F6">AI Services</text>
  
  <!-- Small Gears -->
  <path d="M310 80C310 77.7909 308.209 76 306 76C303.791 76 302 77.7909 302 80C302 82.2091 303.791 84 306 84C308.209 84 310 82.2091 310 80Z" fill="#BFDBFE" stroke="#3B82F6" stroke-width="1.5"/>
  <path d="M306 72V74" stroke="#3B82F6" stroke-width="1.5" stroke-linecap="round"/>
  <path d="M306 86V88" stroke="#3B82F6" stroke-width="1.5" stroke-linecap="round"/>
  <path d="M312 80H314" stroke="#3B82F6" stroke-width="1.5" stroke-linecap="round"/>
  <path d="M298 80H300" stroke="#3B82F6" stroke-width="1.5" stroke-linecap="round"/>
  <path d="M310.5 75.5L312 74" stroke="#3B82F6" stroke-width="1.5" stroke-linecap="round"/>
  <path d="M300 86L301.5 84.5" stroke="#3B82F6" stroke-width="1.5" stroke-linecap="round"/>
  <path d="M310.5 84.5L312 86" stroke="#3B82F6" stroke-width="1.5" stroke-linecap="round"/>
  <path d="M300 74L301.5 75.5" stroke="#3B82F6" stroke-width="1.5" stroke-linecap="round"/>
  
  <path d="M340 100C340 97.7909 338.209 96 336 96C333.791 96 332 97.7909 332 100C332 102.209 333.791 104 336 104C338.209 104 340 102.209 340 100Z" fill="#BFDBFE" stroke="#3B82F6" stroke-width="1.5"/>
  <path d="M336 92V94" stroke="#3B82F6" stroke-width="1.5" stroke-linecap="round"/>
  <path d="M336 106V108" stroke="#3B82F6" stroke-width="1.5" stroke-linecap="round"/>
  <path d="M342 100H344" stroke="#3B82F6" stroke-width="1.5" stroke-linecap="round"/>
  <path d="M328 100H330" stroke="#3B82F6" stroke-width="1.5" stroke-linecap="round"/>
  <path d="M340.5 95.5L342 94" stroke="#3B82F6" stroke-width="1.5" stroke-linecap="round"/>
  <path d="M330 106L331.5 104.5" stroke="#3B82F6" stroke-width="1.5" stroke-linecap="round"/>
  <path d="M340.5 104.5L342 106" stroke="#3B82F6" stroke-width="1.5" stroke-linecap="round"/>
  <path d="M330 94L331.5 95.5" stroke="#3B82F6" stroke-width="1.5" stroke-linecap="round"/>

  <!-- Floating Binary Code -->
  <text x="60" y="80" font-family="monospace" font-size="12" fill="#3B82F6">10110</text>
  <text x="80" y="100" font-family="monospace" font-size="12" fill="#3B82F6">01001</text>
  <text x="50" y="120" font-family="monospace" font-size="12" fill="#3B82F6">11010</text>
</svg> 