<svg width="400" height="300" viewBox="0 0 400 300" fill="none" xmlns="http://www.w3.org/2000/svg">
  <!-- Background -->
  <rect width="400" height="300" fill="white"/>
  
  <!-- Main Testimonials Container -->
  <rect x="50" y="60" width="300" height="180" rx="10" fill="#E6F0FF" stroke="#3B82F6" stroke-width="2"/>
  
  <!-- Quote Mark -->
  <path d="M100 100C100 90 110 80 120 80L120 110C120 110 120 120 110 120C100 120 100 110 100 110L100 100Z" fill="#BFDBFE" stroke="#3B82F6" stroke-width="1.5"/>
  <path d="M130 100C130 90 140 80 150 80L150 110C150 110 150 120 140 120C130 120 130 110 130 110L130 100Z" fill="#BFDBFE" stroke="#3B82F6" stroke-width="1.5"/>
  
  <!-- Testimonial Cards -->
  <!-- Card 1 -->
  <rect x="90" y="140" width="80" height="60" rx="6" fill="white" stroke="#3B82F6" stroke-width="1.5"/>
  <circle cx="110" cy="155" r="10" fill="#BFDBFE"/>
  <line x1="130" y1="150" x2="160" y2="150" stroke="#3B82F6" stroke-width="1.5"/>
  <line x1="130" y1="160" x2="155" y2="160" stroke="#3B82F6" stroke-width="1.5"/>
  <line x1="100" y1="175" x2="160" y2="175" stroke="#3B82F6" stroke-width="1.5" stroke-dasharray="2 1"/>
  <line x1="100" y1="185" x2="145" y2="185" stroke="#3B82F6" stroke-width="1.5" stroke-dasharray="2 1"/>
  
  <!-- Card 2 -->
  <rect x="190" y="120" width="80" height="60" rx="6" fill="white" stroke="#3B82F6" stroke-width="1.5"/>
  <circle cx="210" cy="135" r="10" fill="#BFDBFE"/>
  <line x1="230" y1="130" x2="260" y2="130" stroke="#3B82F6" stroke-width="1.5"/>
  <line x1="230" y1="140" x2="255" y2="140" stroke="#3B82F6" stroke-width="1.5"/>
  <line x1="200" y1="155" x2="260" y2="155" stroke="#3B82F6" stroke-width="1.5" stroke-dasharray="2 1"/>
  <line x1="200" y1="165" x2="245" y2="165" stroke="#3B82F6" stroke-width="1.5" stroke-dasharray="2 1"/>
  
  <!-- Card 3 -->
  <rect x="230" y="190" width="80" height="60" rx="6" fill="white" stroke="#3B82F6" stroke-width="1.5" transform="rotate(-5 230 190)"/>
  <circle cx="250" cy="205" r="10" fill="#BFDBFE" transform="rotate(-5 250 205)"/>
  <line x1="268" y1="199" x2="298" y2="194" stroke="#3B82F6" stroke-width="1.5"/>
  <line x1="265" y1="209" x2="290" y2="204" stroke="#3B82F6" stroke-width="1.5"/>
  <line x1="240" y1="224" x2="300" y2="216" stroke="#3B82F6" stroke-width="1.5" stroke-dasharray="2 1"/>
  <line x1="238" y1="234" x2="282" y2="228" stroke="#3B82F6" stroke-width="1.5" stroke-dasharray="2 1"/>
  
  <!-- Star Ratings -->
  <path d="M90 110L92 115L97 116L92 117L90 122L88 117L83 116L88 115L90 110Z" fill="#3B82F6"/>
  <path d="M105 110L107 115L112 116L107 117L105 122L103 117L98 116L103 115L105 110Z" fill="#3B82F6"/>
  <path d="M120 110L122 115L127 116L122 117L120 122L118 117L113 116L118 115L120 110Z" fill="#3B82F6"/>
  <path d="M135 110L137 115L142 116L137 117L135 122L133 117L128 116L133 115L135 110Z" fill="#3B82F6"/>
  <path d="M150 110L152 115L157 116L152 117L150 122L148 117L143 116L148 115L150 110Z" fill="#3B82F6"/>
  
  <!-- Testimonial Title -->
  <text x="200" y="40" text-anchor="middle" font-family="Arial" font-size="16" font-weight="bold" fill="#3B82F6">What Our Clients Say</text>
  
  <!-- Decorative Element -->
  <path d="M310 90C320 90 330 100 330 110C330 120 320 130 310 130" stroke="#3B82F6" stroke-width="1.5" stroke-dasharray="3 2"/>
  <path d="M310 130C300 130 290 120 290 110C290 100 300 90 310 90" stroke="#3B82F6" stroke-width="1.5" stroke-dasharray="3 2"/>
</svg> 