<svg width="400" height="300" viewBox="0 0 400 300" fill="none" xmlns="http://www.w3.org/2000/svg">
  <!-- Background -->
  <rect width="400" height="300" fill="white"/>
  
  <!-- Main Tools Container -->
  <rect x="50" y="50" width="300" height="200" rx="10" fill="#E6F0FF" stroke="#3B82F6" stroke-width="2"/>
  
  <!-- Tool 1: AI Text Generator -->
  <rect x="80" y="80" width="100" height="140" rx="6" fill="white" stroke="#3B82F6" stroke-width="1.5"/>
  <circle cx="130" cy="105" r="15" fill="#BFDBFE"/>
  <path d="M120 105L130 105L140 105" stroke="#3B82F6" stroke-width="2" stroke-linecap="round"/>
  <path d="M125 110L130 105L125 100" stroke="#3B82F6" stroke-width="2" stroke-linecap="round"/>
  <path d="M135 100L130 105L135 110" stroke="#3B82F6" stroke-width="2" stroke-linecap="round"/>
  
  <!-- Text Lines -->
  <rect x="90" y="135" width="80" height="6" rx="3" fill="#BFDBFE"/>
  <rect x="90" y="145" width="60" height="6" rx="3" fill="#BFDBFE"/>
  <rect x="90" y="155" width="70" height="6" rx="3" fill="#BFDBFE"/>
  <rect x="90" y="165" width="50" height="6" rx="3" fill="#BFDBFE"/>
  <rect x="90" y="175" width="75" height="6" rx="3" fill="#BFDBFE"/>
  <rect x="90" y="185" width="65" height="6" rx="3" fill="#BFDBFE"/>
  <rect x="90" y="195" width="40" height="6" rx="3" fill="#BFDBFE"/>
  
  <!-- Tool 2: Image Analyzer -->
  <rect x="220" y="80" width="100" height="70" rx="6" fill="white" stroke="#3B82F6" stroke-width="1.5"/>
  <rect x="235" y="95" width="70" height="40" rx="4" fill="#BFDBFE"/>
  <circle cx="255" cy="115" r="8" fill="#3B82F6"/>
  <rect x="270" y="105" width="25" height="4" rx="2" fill="white"/>
  <rect x="270" y="115" width="20" height="4" rx="2" fill="white"/>
  <rect x="270" y="125" width="15" height="4" rx="2" fill="white"/>
  <path d="M230 160L240 160" stroke="#3B82F6" stroke-width="2" stroke-linecap="round"/>
  <path d="M250 160L310 160" stroke="#3B82F6" stroke-width="2" stroke-linecap="round"/>
  <circle cx="245" cy="160" r="5" fill="#3B82F6"/>
  
  <!-- Tool 3: Data Visualizer -->
  <rect x="220" y="175" width="100" height="55" rx="6" fill="white" stroke="#3B82F6" stroke-width="1.5"/>
  <rect x="230" y="185" width="15" height="35" rx="2" fill="#3B82F6"/>
  <rect x="250" y="195" width="15" height="25" rx="2" fill="#3B82F6"/>
  <rect x="270" y="185" width="15" height="35" rx="2" fill="#3B82F6"/>
  <rect x="290" y="190" width="15" height="30" rx="2" fill="#3B82F6"/>
  
  <!-- Connecting Lines -->
  <path d="M180 120C190 120 190 115 200 115" stroke="#3B82F6" stroke-width="1.5" stroke-dasharray="3 2"/>
  <path d="M180 150C190 150 190 202 220 202" stroke="#3B82F6" stroke-width="1.5" stroke-dasharray="3 2"/>
  
  <!-- Tools Title -->
  <text x="200" y="30" text-anchor="middle" font-family="Arial" font-size="16" font-weight="bold" fill="#3B82F6">AI Tools Suite</text>
  
  <!-- Small Decorative Elements -->
  <path d="M50 25L52 30L57 32L52 34L50 39L48 34L43 32L48 30L50 25Z" fill="#3B82F6"/>
  <path d="M350 25L352 30L357 32L352 34L350 39L348 34L343 32L348 30L350 25Z" fill="#3B82F6"/>
  
  <!-- Settings Gear -->
  <circle cx="35" cy="265" r="12" fill="#BFDBFE" stroke="#3B82F6" stroke-width="1.5"/>
  <path d="M35 257V259" stroke="#3B82F6" stroke-width="1.5" stroke-linecap="round"/>
  <path d="M35 271V273" stroke="#3B82F6" stroke-width="1.5" stroke-linecap="round"/>
  <path d="M43 265H41" stroke="#3B82F6" stroke-width="1.5" stroke-linecap="round"/>
  <path d="M29 265H27" stroke="#3B82F6" stroke-width="1.5" stroke-linecap="round"/>
  <path d="M40.5 259.5L39 258" stroke="#3B82F6" stroke-width="1.5" stroke-linecap="round"/>
  <path d="M31 272L29.5 270.5" stroke="#3B82F6" stroke-width="1.5" stroke-linecap="round"/>
  <path d="M40.5 270.5L39 272" stroke="#3B82F6" stroke-width="1.5" stroke-linecap="round"/>
  <path d="M31 258L29.5 259.5" stroke="#3B82F6" stroke-width="1.5" stroke-linecap="round"/>
  
  <!-- Code Element -->
  <rect x="280" y="255" width="70" height="30" rx="4" fill="#E6F0FF" stroke="#3B82F6" stroke-width="1.5"/>
  <text x="315" y="274" text-anchor="middle" font-family="monospace" font-size="10" fill="#3B82F6">AI.tools</text>
</svg> 