<?xml version="1.0" encoding="UTF-8"?>
<svg width="200" height="200" viewBox="0 0 200 200" fill="none" xmlns="http://www.w3.org/2000/svg">
  <!-- Background Circle -->
  <circle cx="100" cy="100" r="100" fill="#EFF6FF"/>
  
  <!-- Head -->
  <circle cx="100" cy="85" r="45" fill="#BFDBFE" stroke="#3B82F6" stroke-width="2"/>
  
  <!-- Face Features -->
  <circle cx="85" cy="75" r="5" fill="#3B82F6"/>
  <circle cx="115" cy="75" r="5" fill="#3B82F6"/>
  <path d="M85 100C85 100 100 115 115 100" stroke="#3B82F6" stroke-width="3" stroke-linecap="round"/>
  
  <!-- Hair -->
  <path d="M60 70C60 70 55 50 80 45C105 40 125 45 140 70" fill="#3B82F6"/>
  <path d="M60 70C60 70 55 50 80 45C105 40 125 45 140 70" stroke="#3B82F6" stroke-width="2"/>
  
  <!-- Body/Shoulders -->
  <path d="M55 150C55 120 70 120 100 120C130 120 145 120 145 150" fill="#3B82F6"/>
  
  <!-- Necklace -->
  <path d="M85 125C85 125 100 140 115 125" stroke="white" stroke-width="3" stroke-linecap="round"/>
  
  <!-- Professional Outfit Details -->
  <rect x="92" y="140" width="16" height="30" fill="#BFDBFE"/>
  <path d="M92 140L85 125" stroke="#BFDBFE" stroke-width="2" stroke-linecap="round"/>
  <path d="M108 140L115 125" stroke="#BFDBFE" stroke-width="2" stroke-linecap="round"/>
</svg> 