<?xml version="1.0" encoding="UTF-8"?>
<svg width="200" height="200" viewBox="0 0 200 200" fill="none" xmlns="http://www.w3.org/2000/svg">
  <!-- Background Circle -->
  <circle cx="100" cy="100" r="100" fill="#EFF6FF"/>
  
  <!-- Head -->
  <circle cx="100" cy="85" r="45" fill="#BFDBFE" stroke="#3B82F6" stroke-width="2"/>
  
  <!-- Face Features -->
  <circle cx="85" cy="75" r="5" fill="#3B82F6"/>
  <circle cx="115" cy="75" r="5" fill="#3B82F6"/>
  <path d="M85 105C85 105 100 110 115 105" stroke="#3B82F6" stroke-width="3" stroke-linecap="round"/>
  
  <!-- Hair (Shorter, more modern style) -->
  <path d="M65 60C65 60 70 40 100 40C130 40 135 60 135 60V75C135 75 130 50 100 50C70 50 65 75 65 75V60Z" fill="#3B82F6"/>
  
  <!-- Body/Shoulders -->
  <path d="M55 150C55 120 70 120 100 120C130 120 145 120 145 150" fill="#60A5FA"/>
  
  <!-- Graduation Cap -->
  <path d="M70 50L100 30L130 50L100 70L70 50Z" fill="#3B82F6" stroke="#2563EB" stroke-width="1"/>
  <rect x="95" y="70" width="10" height="15" fill="#3B82F6"/>
  
  <!-- T-Shirt Detail -->
  <path d="M95 140H105L100 150L95 140Z" fill="#BFDBFE"/>
  
  <!-- Glasses -->
  <path d="M75 75H95" stroke="#3B82F6" stroke-width="2"/>
  <path d="M105 75H125" stroke="#3B82F6" stroke-width="2"/>
  <circle cx="85" cy="75" r="10" stroke="#3B82F6" stroke-width="2" fill="none"/>
  <circle cx="115" cy="75" r="10" stroke="#3B82F6" stroke-width="2" fill="none"/>
</svg> 