<svg width="400" height="300" viewBox="0 0 400 300" fill="none" xmlns="http://www.w3.org/2000/svg">
  <!-- Background -->
  <rect width="400" height="300" fill="white"/>
  
  <!-- Main Project Display -->
  <rect x="50" y="50" width="300" height="200" rx="8" fill="#E6F0FF" stroke="#3B82F6" stroke-width="2"/>
  
  <!-- AI Model Visualization -->
  <circle cx="120" cy="120" r="40" fill="#BFDBFE" stroke="#3B82F6" stroke-width="1.5"/>
  
  <!-- Nodes & Connections -->
  <circle cx="100" cy="100" r="6" fill="#3B82F6"/>
  <circle cx="140" cy="100" r="6" fill="#3B82F6"/>
  <circle cx="110" cy="140" r="6" fill="#3B82F6"/>
  <circle cx="130" cy="140" r="6" fill="#3B82F6"/>
  <circle cx="120" cy="120" r="6" fill="#3B82F6"/>
  
  <!-- Connection Lines -->
  <line x1="100" y1="100" x2="120" y2="120" stroke="#3B82F6" stroke-width="1.5"/>
  <line x1="140" y1="100" x2="120" y2="120" stroke="#3B82F6" stroke-width="1.5"/>
  <line x1="110" y1="140" x2="120" y2="120" stroke="#3B82F6" stroke-width="1.5"/>
  <line x1="130" y1="140" x2="120" y2="120" stroke="#3B82F6" stroke-width="1.5"/>
  
  <!-- Data Flow -->
  <path d="M180 100C200 100 200 140 220 140" stroke="#3B82F6" stroke-width="2" stroke-dasharray="4 2"/>
  <circle cx="180" cy="100" r="5" fill="#3B82F6"/>
  <circle cx="220" cy="140" r="5" fill="#3B82F6"/>
  
  <!-- Output Display -->
  <rect x="240" y="80" width="80" height="120" rx="4" fill="white" stroke="#3B82F6" stroke-width="1.5"/>
  <line x1="250" y1="100" x2="310" y2="100" stroke="#3B82F6" stroke-width="1.5"/>
  <line x1="250" y1="120" x2="290" y2="120" stroke="#3B82F6" stroke-width="1.5"/>
  <line x1="250" y1="140" x2="300" y2="140" stroke="#3B82F6" stroke-width="1.5"/>
  <line x1="250" y1="160" x2="280" y2="160" stroke="#3B82F6" stroke-width="1.5"/>
  <line x1="250" y1="180" x2="310" y2="180" stroke="#3B82F6" stroke-width="1.5"/>
  
  <!-- Project Title -->
  <text x="200" y="30" text-anchor="middle" font-family="Arial" font-size="16" font-weight="bold" fill="#3B82F6">AI Project</text>
  
  <!-- Binary Elements -->
  <text x="70" y="210" font-family="monospace" font-size="10" fill="#3B82F6">101001</text>
  <text x="140" y="70" font-family="monospace" font-size="10" fill="#3B82F6">010110</text>
  
  <!-- Small Decorative Elements -->
  <rect x="60" y="180" width="40" height="6" rx="2" fill="#3B82F6"/>
  <rect x="60" y="190" width="30" height="6" rx="2" fill="#3B82F6"/>
  <rect x="60" y="200" width="20" height="6" rx="2" fill="#3B82F6"/>
  
  <path d="M320 80L322 85L327 87L322 89L320 94L318 89L313 87L318 85L320 80Z" fill="#3B82F6"/>
</svg> 