<svg width="800" height="450" viewBox="0 0 800 450" fill="none" xmlns="http://www.w3.org/2000/svg">
  <!-- Background -->
  <rect width="800" height="450" fill="#EFF6FF"/>
  
  <!-- Main Display Console -->
  <rect x="100" y="75" width="600" height="300" rx="8" fill="#1E293B" stroke="#3B82F6" stroke-width="2"/>
  
  <!-- Header Bar -->
  <rect x="100" y="75" width="600" height="40" rx="8 8 0 0" fill="#3B82F6"/>
  <circle cx="130" cy="95" r="8" fill="#FCA5A5"/>
  <circle cx="155" cy="95" r="8" fill="#FCD34D"/>
  <circle cx="180" cy="95" r="8" fill="#86EFAC"/>
  <text x="400" y="100" font-family="Arial" font-size="14" fill="white" text-anchor="middle">SURVEILLANCE MONITORING SYSTEM</text>
  
  <!-- Camera Displays Grid -->
  <!-- Row 1 -->
  <rect x="120" y="130" width="170" height="110" rx="4" fill="#DBEAFE" stroke="#3B82F6" stroke-width="1.5"/>
  <rect x="310" y="130" width="170" height="110" rx="4" fill="#DBEAFE" stroke="#3B82F6" stroke-width="1.5"/>
  <rect x="500" y="130" width="170" height="110" rx="4" fill="#DBEAFE" stroke="#3B82F6" stroke-width="1.5"/>
  
  <!-- Row 2 -->
  <rect x="120" y="250" width="170" height="110" rx="4" fill="#DBEAFE" stroke="#3B82F6" stroke-width="1.5"/>
  <rect x="310" y="250" width="170" height="110" rx="4" fill="#DBEAFE" stroke="#3B82F6" stroke-width="1.5"/>
  <rect x="500" y="250" width="170" height="110" rx="4" fill="#DBEAFE" stroke="#3B82F6" stroke-width="1.5"/>
  
  <!-- Camera Content - Row 1 -->
  <!-- Camera 1 - Building Entrance -->
  <rect x="125" y="135" width="160" height="90" rx="2" fill="#64748B"/>
  <path d="M135 215 L275 135" stroke="#3B82F6" stroke-width="0.5" stroke-dasharray="2 2"/>
  <path d="M135 135 L275 215" stroke="#3B82F6" stroke-width="0.5" stroke-dasharray="2 2"/>
  <rect x="185" y="170" width="40" height="40" rx="2" stroke="#FCD34D" stroke-width="1.5" fill="none" stroke-dasharray="2 2"/>
  <text x="205" y="150" font-family="Arial" font-size="8" fill="white" text-anchor="middle">CAM 01 - ENTRANCE</text>
  
  <!-- Camera 2 - Parking Lot -->
  <rect x="315" y="135" width="160" height="90" rx="2" fill="#64748B"/>
  <path d="M325 215 L465 135" stroke="#3B82F6" stroke-width="0.5" stroke-dasharray="2 2"/>
  <path d="M325 135 L465 215" stroke="#3B82F6" stroke-width="0.5" stroke-dasharray="2 2"/>
  <circle cx="395" cy="180" r="18" stroke="#FCD34D" stroke-width="1.5" fill="none" stroke-dasharray="2 2"/>
  <text x="395" y="150" font-family="Arial" font-size="8" fill="white" text-anchor="middle">CAM 02 - PARKING</text>
  
  <!-- Camera 3 - Server Room -->
  <rect x="505" y="135" width="160" height="90" rx="2" fill="#64748B"/>
  <path d="M515 215 L655 135" stroke="#3B82F6" stroke-width="0.5" stroke-dasharray="2 2"/>
  <path d="M515 135 L655 215" stroke="#3B82F6" stroke-width="0.5" stroke-dasharray="2 2"/>
  <rect x="565" y="165" width="40" height="30" rx="2" stroke="#FCD34D" stroke-width="1.5" fill="none" stroke-dasharray="2 2"/>
  <text x="585" y="150" font-family="Arial" font-size="8" fill="white" text-anchor="middle">CAM 03 - SERVER ROOM</text>
  
  <!-- Camera Content - Row 2 -->
  <!-- Camera 4 - Reception -->
  <rect x="125" y="255" width="160" height="90" rx="2" fill="#64748B"/>
  <path d="M135 335 L275 255" stroke="#3B82F6" stroke-width="0.5" stroke-dasharray="2 2"/>
  <path d="M135 255 L275 335" stroke="#3B82F6" stroke-width="0.5" stroke-dasharray="2 2"/>
  <rect x="195" y="285" width="20" height="20" rx="1" stroke="#ED4444" stroke-width="1.5" fill="none"/>
  <text x="205" y="270" font-family="Arial" font-size="8" fill="white" text-anchor="middle">CAM 04 - RECEPTION</text>
  <text x="205" y="325" font-family="Arial" font-size="7" fill="#ED4444" text-anchor="middle">MOTION DETECTED</text>
  
  <!-- Camera 5 - Hallway -->
  <rect x="315" y="255" width="160" height="90" rx="2" fill="#64748B"/>
  <path d="M325 335 L465 255" stroke="#3B82F6" stroke-width="0.5" stroke-dasharray="2 2"/>
  <path d="M325 255 L465 335" stroke="#3B82F6" stroke-width="0.5" stroke-dasharray="2 2"/>
  <rect x="385" y="285" width="20" height="20" rx="1" stroke="#FCD34D" stroke-width="1.5" fill="none" stroke-dasharray="2 2"/>
  <text x="395" y="270" font-family="Arial" font-size="8" fill="white" text-anchor="middle">CAM 05 - HALLWAY</text>
  
  <!-- Camera 6 - Loading Dock -->
  <rect x="505" y="255" width="160" height="90" rx="2" fill="#64748B"/>
  <path d="M515 335 L655 255" stroke="#3B82F6" stroke-width="0.5" stroke-dasharray="2 2"/>
  <path d="M515 255 L655 335" stroke="#3B82F6" stroke-width="0.5" stroke-dasharray="2 2"/>
  <rect x="575" y="285" width="20" height="20" rx="1" stroke="#FCD34D" stroke-width="1.5" fill="none" stroke-dasharray="2 2"/>
  <text x="585" y="270" font-family="Arial" font-size="8" fill="white" text-anchor="middle">CAM 06 - LOADING DOCK</text>
  
  <!-- AI Detection Badge -->
  <rect x="120" y="370" width="150" height="20" rx="4" fill="#3B82F6"/>
  <text x="195" y="384" font-family="Arial" font-size="10" fill="white" text-anchor="middle">AI OBJECT DETECTION</text>
  
  <!-- System Info Badge -->
  <rect x="280" y="370" width="80" height="20" rx="4" fill="#EFF6FF" stroke="#3B82F6" stroke-width="1"/>
  <text x="320" y="384" font-family="Arial" font-size="10" fill="#3B82F6" text-anchor="middle">ONLINE</text>
  
  <!-- Time Badge -->
  <rect x="370" y="370" width="150" height="20" rx="4" fill="#EFF6FF" stroke="#3B82F6" stroke-width="1"/>
  <text x="445" y="384" font-family="Arial" font-size="10" fill="#3B82F6" text-anchor="middle">14:30:22 - 21/04/2023</text>
  
  <!-- Alert Badge -->
  <rect x="530" y="370" width="140" height="20" rx="4" fill="#FEF2F2" stroke="#ED4444" stroke-width="1"/>
  <text x="600" y="384" font-family="Arial" font-size="10" fill="#ED4444" text-anchor="middle">ALERT: ZONE 4</text>
  
  <!-- Decorative Elements -->
  <circle cx="60" cy="60" r="20" fill="#DBEAFE" stroke="#3B82F6" stroke-width="1" opacity="0.7"/>
  <circle cx="740" cy="390" r="20" fill="#DBEAFE" stroke="#3B82F6" stroke-width="1" opacity="0.7"/>
</svg> 