<svg width="32" height="32" viewBox="0 0 32 32" fill="none" xmlns="http://www.w3.org/2000/svg">
  <path d="M24 20.5C26.2091 20.5 28 18.7091 28 16.5C28 14.2909 26.2091 12.5 24 12.5C23.9889 12.5 23.9778 12.5 23.9666 12.5001C23.6597 9.41296 21.0459 7 18 7C15.4301 7 13.2045 8.70945 12.3522 11.0253C11.9574 10.8996 11.5336 10.8333 11.0909 10.8333C8.89117 10.8333 7.09091 12.5964 7.09091 14.75C7.09091 14.9665 7.11057 15.1784 7.14806 15.3843C5.86806 15.9191 5 17.1791 5 18.6667C5 20.7828 6.71716 22.5 8.83333 22.5H24Z" stroke="#3B82F6" stroke-width="1.5" fill="none"/>
  <path d="M16 22.5V26.5" stroke="#3B82F6" stroke-width="1.5" stroke-linecap="round"/>
  <path d="M20 22.5V26.5" stroke="#3B82F6" stroke-width="1.5" stroke-linecap="round"/>
  <path d="M12 22.5V26.5" stroke="#3B82F6" stroke-width="1.5" stroke-linecap="round"/>
  <circle cx="16" cy="28" r="1" fill="#3B82F6"/>
  <circle cx="20" cy="28" r="1" fill="#3B82F6"/>
  <circle cx="12" cy="28" r="1" fill="#3B82F6"/>
  <path d="M18 10.5L18.5 12.5L20.5 13L18.5 13.5L18 15.5L17.5 13.5L15.5 13L17.5 12.5L18 10.5Z" fill="#3B82F6"/>
</svg> 