<svg width="32" height="32" viewBox="0 0 32 32" fill="none" xmlns="http://www.w3.org/2000/svg">
  <circle cx="16" cy="16" r="14" stroke="#3B82F6" stroke-width="1.5" fill="none"/>
  
  <!-- Speech Bubble -->
  <path d="M10 12C10 10.8954 10.8954 10 12 10H20C21.1046 10 22 10.8954 22 12V18C22 19.1046 21.1046 20 20 20H16L12 24V20H12C10.8954 20 10 19.1046 10 18V12Z" fill="#E6F0FF" stroke="#3B82F6" stroke-width="1.5"/>
  
  <!-- Text Elements -->
  <line x1="13" y1="14" x2="19" y2="14" stroke="#3B82F6" stroke-width="1.5" stroke-linecap="round"/>
  <line x1="13" y1="17" x2="17" y2="17" stroke="#3B82F6" stroke-width="1.5" stroke-linecap="round"/>
  
  <!-- Processing Arrows -->
  <path d="M7 21C7 21 9 24 16 24C23 24 25 21 25 21" stroke="#3B82F6" stroke-width="1.5" stroke-linecap="round" stroke-dasharray="2 1"/>
  <path d="M9 22L7 21L6 23" stroke="#3B82F6" stroke-width="1.5" stroke-linecap="round" stroke-linejoin="round"/>
  <path d="M23 22L25 21L26 23" stroke="#3B82F6" stroke-width="1.5" stroke-linecap="round" stroke-linejoin="round"/>
</svg> 