<?xml version="1.0" encoding="UTF-8"?>
<svg width="400" height="300" viewBox="0 0 400 300" fill="none" xmlns="http://www.w3.org/2000/svg">
  <!-- Background -->
  <rect width="400" height="300" fill="#F8FAFC"/>
  
  <!-- AI Brain Network Container -->
  <rect x="50" y="50" width="300" height="200" rx="10" fill="white" stroke="#3B82F6" stroke-width="2"/>
  
  <!-- Brain Outline -->
  <path d="M200 80C160 80 150 100 150 120C150 140 160 150 180 160C160 170 150 180 150 200C150 220 170 240 200 240C230 240 250 220 250 200C250 180 240 170 220 160C240 150 250 140 250 120C250 100 240 80 200 80Z" fill="#EFF6FF" stroke="#3B82F6" stroke-width="2"/>
  
  <!-- Neural Network Nodes (Large) -->
  <circle cx="200" cy="120" r="15" fill="#3B82F6"/>
  <circle cx="170" cy="140" r="10" fill="#3B82F6"/>
  <circle cx="230" cy="140" r="10" fill="#3B82F6"/>
  <circle cx="180" cy="180" r="12" fill="#3B82F6"/>
  <circle cx="220" cy="180" r="12" fill="#3B82F6"/>
  <circle cx="200" cy="210" r="14" fill="#3B82F6"/>
  
  <!-- Connection Lines -->
  <line x1="200" y1="120" x2="170" y2="140" stroke="#3B82F6" stroke-width="2"/>
  <line x1="200" y1="120" x2="230" y2="140" stroke="#3B82F6" stroke-width="2"/>
  <line x1="170" y1="140" x2="180" y2="180" stroke="#3B82F6" stroke-width="2"/>
  <line x1="230" y1="140" x2="220" y2="180" stroke="#3B82F6" stroke-width="2"/>
  <line x1="180" y1="180" x2="200" y2="210" stroke="#3B82F6" stroke-width="2"/>
  <line x1="220" y1="180" x2="200" y2="210" stroke="#3B82F6" stroke-width="2"/>
  <line x1="170" y1="140" x2="230" y2="140" stroke="#3B82F6" stroke-width="2" stroke-dasharray="4 2"/>
  <line x1="180" y1="180" x2="220" y2="180" stroke="#3B82F6" stroke-width="2" stroke-dasharray="4 2"/>
  
  <!-- Small Floating Nodes -->
  <circle cx="160" cy="100" r="5" fill="#93C5FD"/>
  <circle cx="240" cy="100" r="5" fill="#93C5FD"/>
  <circle cx="150" cy="160" r="5" fill="#93C5FD"/>
  <circle cx="250" cy="160" r="5" fill="#93C5FD"/>
  <circle cx="160" cy="220" r="5" fill="#93C5FD"/>
  <circle cx="240" cy="220" r="5" fill="#93C5FD"/>
  
  <!-- Data Particles -->
  <circle cx="190" cy="110" r="2" fill="#60A5FA"/>
  <circle cx="185" cy="155" r="2" fill="#60A5FA"/>
  <circle cx="210" cy="160" r="2" fill="#60A5FA"/>
  <circle cx="190" cy="195" r="2" fill="#60A5FA"/>
  <circle cx="215" cy="195" r="2" fill="#60A5FA"/>
  
  <!-- AI Elements -->
  <!-- Top Left Feature -->
  <rect x="70" y="70" width="60" height="40" rx="5" fill="#EFF6FF" stroke="#3B82F6" stroke-width="1.5"/>
  <text x="100" y="90" font-family="Arial" font-size="8" fill="#3B82F6" text-anchor="middle">Machine</text>
  <text x="100" y="100" font-family="Arial" font-size="8" fill="#3B82F6" text-anchor="middle">Learning</text>
  
  <!-- Top Right Feature -->
  <rect x="270" y="70" width="60" height="40" rx="5" fill="#EFF6FF" stroke="#3B82F6" stroke-width="1.5"/>
  <text x="300" y="90" font-family="Arial" font-size="8" fill="#3B82F6" text-anchor="middle">Natural</text>
  <text x="300" y="100" font-family="Arial" font-size="8" fill="#3B82F6" text-anchor="middle">Language</text>
  
  <!-- Bottom Left Feature -->
  <rect x="70" y="190" width="60" height="40" rx="5" fill="#EFF6FF" stroke="#3B82F6" stroke-width="1.5"/>
  <text x="100" y="210" font-family="Arial" font-size="8" fill="#3B82F6" text-anchor="middle">Computer</text>
  <text x="100" y="220" font-family="Arial" font-size="8" fill="#3B82F6" text-anchor="middle">Vision</text>
  
  <!-- Bottom Right Feature -->
  <rect x="270" y="190" width="60" height="40" rx="5" fill="#EFF6FF" stroke="#3B82F6" stroke-width="1.5"/>
  <text x="300" y="210" font-family="Arial" font-size="8" fill="#3B82F6" text-anchor="middle">Predictive</text>
  <text x="300" y="220" font-family="Arial" font-size="8" fill="#3B82F6" text-anchor="middle">Analytics</text>
  
  <!-- Connecting Lines -->
  <line x1="130" y1="90" x2="160" y2="100" stroke="#3B82F6" stroke-width="1" stroke-dasharray="2 1"/>
  <line x1="270" y1="90" x2="240" y2="100" stroke="#3B82F6" stroke-width="1" stroke-dasharray="2 1"/>
  <line x1="130" y1="210" x2="160" y2="220" stroke="#3B82F6" stroke-width="1" stroke-dasharray="2 1"/>
  <line x1="270" y1="210" x2="240" y2="220" stroke="#3B82F6" stroke-width="1" stroke-dasharray="2 1"/>
  
  <!-- Binary Data Background -->
  <text x="100" y="160" font-family="monospace" font-size="8" fill="#BFDBFE">10110</text>
  <text x="280" y="160" font-family="monospace" font-size="8" fill="#BFDBFE">01001</text>
  <text x="120" y="140" font-family="monospace" font-size="8" fill="#BFDBFE">11010</text>
  <text x="260" y="140" font-family="monospace" font-size="8" fill="#BFDBFE">10101</text>
  
  <!-- Decorative Elements -->
  <path d="M30 30L32 35L37 37L32 39L30 44L28 39L23 37L28 35L30 30Z" fill="#3B82F6"/>
  <path d="M370 30L372 35L377 37L372 39L370 44L368 39L363 37L368 35L370 30Z" fill="#3B82F6"/>
  <path d="M200 30L202 35L207 37L202 39L200 44L198 39L193 37L198 35L200 30Z" fill="#3B82F6"/>
  
  <!-- Title -->
  <text x="200" y="30" font-family="Arial" font-size="16" font-weight="bold" fill="#3B82F6" text-anchor="middle">AI & Machine Learning</text>
</svg> 