<?xml version="1.0" encoding="UTF-8"?>
<svg width="400" height="300" viewBox="0 0 400 300" fill="none" xmlns="http://www.w3.org/2000/svg">
  <!-- Background -->
  <rect width="400" height="300" fill="#F8FAFC"/>
  
  <!-- Chart Area -->
  <rect x="50" y="50" width="300" height="200" rx="8" fill="white" stroke="#3B82F6" stroke-width="2"/>
  
  <!-- Bar Chart -->
  <rect x="80" y="180" width="30" height="40" fill="#3B82F6"/>
  <rect x="130" y="150" width="30" height="70" fill="#3B82F6"/>
  <rect x="180" y="120" width="30" height="100" fill="#3B82F6"/>
  <rect x="230" y="90" width="30" height="130" fill="#3B82F6"/>
  <rect x="280" y="60" width="30" height="160" fill="#3B82F6"/>
  
  <!-- Line Chart -->
  <path d="M80 160 L130 140 L180 100 L230 80 L280 60" stroke="#3B82F6" stroke-width="3" fill="none"/>
  <circle cx="80" cy="160" r="4" fill="#3B82F6"/>
  <circle cx="130" cy="140" r="4" fill="#3B82F6"/>
  <circle cx="180" cy="100" r="4" fill="#3B82F6"/>
  <circle cx="230" cy="80" r="4" fill="#3B82F6"/>
  <circle cx="280" cy="60" r="4" fill="#3B82F6"/>
  
  <!-- Data Points -->
  <circle cx="100" cy="100" r="8" fill="#E2E8F0"/>
  <circle cx="150" cy="120" r="8" fill="#E2E8F0"/>
  <circle cx="200" cy="80" r="8" fill="#E2E8F0"/>
  <circle cx="250" cy="140" r="8" fill="#E2E8F0"/>
  <circle cx="300" cy="100" r="8" fill="#E2E8F0"/>
  
  <!-- Connecting Lines -->
  <line x1="100" y1="100" x2="150" y2="120" stroke="#3B82F6" stroke-width="2"/>
  <line x1="150" y1="120" x2="200" y2="80" stroke="#3B82F6" stroke-width="2"/>
  <line x1="200" y1="80" x2="250" y2="140" stroke="#3B82F6" stroke-width="2"/>
  <line x1="250" y1="140" x2="300" y2="100" stroke="#3B82F6" stroke-width="2"/>
  
  <!-- Title -->
  <text x="200" y="30" text-anchor="middle" font-family="Arial" font-size="16" font-weight="bold" fill="#3B82F6">Data Analytics Solutions</text>
</svg> 