<svg width="400" height="300" viewBox="0 0 400 300" fill="none" xmlns="http://www.w3.org/2000/svg">
  <!-- Background -->
  <rect width="400" height="300" fill="#F8FAFC"/>
  
  <!-- Title -->
  <text x="200" y="40" font-family="Arial" font-size="20" font-weight="bold" fill="#3B82F6" text-anchor="middle">Data Visualizer</text>
  
  <!-- Main Container -->
  <rect x="75" y="60" width="250" height="180" rx="8" fill="white" stroke="#3B82F6" stroke-width="2"/>
  
  <!-- Chart Area -->
  <rect x="90" y="75" width="180" height="150" rx="4" fill="#EFF6FF" stroke="#3B82F6" stroke-width="1.5"/>
  
  <!-- Y-Axis -->
  <line x1="105" y1="80" x2="105" y2="210" stroke="#3B82F6" stroke-width="1.5"/>
  
  <!-- Y-Axis Ticks -->
  <line x1="100" y1="90" x2="105" y2="90" stroke="#3B82F6" stroke-width="1"/>
  <line x1="100" y1="120" x2="105" y2="120" stroke="#3B82F6" stroke-width="1"/>
  <line x1="100" y1="150" x2="105" y2="150" stroke="#3B82F6" stroke-width="1"/>
  <line x1="100" y1="180" x2="105" y2="180" stroke="#3B82F6" stroke-width="1"/>
  
  <!-- Y-Axis Labels -->
  <text x="95" y="93" font-family="Arial" font-size="8" fill="#3B82F6" text-anchor="end">100</text>
  <text x="95" y="123" font-family="Arial" font-size="8" fill="#3B82F6" text-anchor="end">75</text>
  <text x="95" y="153" font-family="Arial" font-size="8" fill="#3B82F6" text-anchor="end">50</text>
  <text x="95" y="183" font-family="Arial" font-size="8" fill="#3B82F6" text-anchor="end">25</text>
  
  <!-- X-Axis -->
  <line x1="105" y1="210" x2="255" y2="210" stroke="#3B82F6" stroke-width="1.5"/>
  
  <!-- X-Axis Ticks -->
  <line x1="135" y1="210" x2="135" y2="215" stroke="#3B82F6" stroke-width="1"/>
  <line x1="165" y1="210" x2="165" y2="215" stroke="#3B82F6" stroke-width="1"/>
  <line x1="195" y1="210" x2="195" y2="215" stroke="#3B82F6" stroke-width="1"/>
  <line x1="225" y1="210" x2="225" y2="215" stroke="#3B82F6" stroke-width="1"/>
  
  <!-- X-Axis Labels -->
  <text x="135" y="225" font-family="Arial" font-size="8" fill="#3B82F6" text-anchor="middle">Q1</text>
  <text x="165" y="225" font-family="Arial" font-size="8" fill="#3B82F6" text-anchor="middle">Q2</text>
  <text x="195" y="225" font-family="Arial" font-size="8" fill="#3B82F6" text-anchor="middle">Q3</text>
  <text x="225" y="225" font-family="Arial" font-size="8" fill="#3B82F6" text-anchor="middle">Q4</text>
  
  <!-- Bar Chart -->
  <rect x="120" y="130" width="20" height="80" fill="#BFDBFE" stroke="#3B82F6" stroke-width="1"/>
  <rect x="150" y="100" width="20" height="110" fill="#BFDBFE" stroke="#3B82F6" stroke-width="1"/>
  <rect x="180" y="160" width="20" height="50" fill="#BFDBFE" stroke="#3B82F6" stroke-width="1"/>
  <rect x="210" y="110" width="20" height="100" fill="#BFDBFE" stroke="#3B82F6" stroke-width="1"/>
  
  <!-- Line Chart -->
  <path d="M130 150 L160 120 L190 170 L220 130" stroke="#3B82F6" stroke-width="2" fill="none" stroke-linejoin="round"/>
  <circle cx="130" cy="150" r="4" fill="white" stroke="#3B82F6" stroke-width="1.5"/>
  <circle cx="160" cy="120" r="4" fill="white" stroke="#3B82F6" stroke-width="1.5"/>
  <circle cx="190" cy="170" r="4" fill="white" stroke="#3B82F6" stroke-width="1.5"/>
  <circle cx="220" cy="130" r="4" fill="white" stroke="#3B82F6" stroke-width="1.5"/>
  
  <!-- Chart Legend -->
  <rect x="280" y="90" width="30" height="15" rx="2" fill="#BFDBFE" stroke="#3B82F6" stroke-width="1"/>
  <text x="315" y="100" font-family="Arial" font-size="8" fill="#3B82F6">Revenue</text>
  
  <line x1="280" y1="120" x2="310" y2="120" stroke="#3B82F6" stroke-width="2"/>
  <circle cx="295" cy="120" r="4" fill="white" stroke="#3B82F6" stroke-width="1.5"/>
  <text x="315" y="123" font-family="Arial" font-size="8" fill="#3B82F6">Trend</text>
  
  <!-- Pie Chart -->
  <circle cx="295" cy="160" r="25" fill="#EFF6FF" stroke="#3B82F6" stroke-width="1.5"/>
  <path d="M295 160 L295 135 A25 25 0 0 1 318 170 Z" fill="#BFDBFE" stroke="#3B82F6" stroke-width="1"/>
  <path d="M295 160 L318 170 A25 25 0 0 1 275 182 Z" fill="#93C5FD" stroke="#3B82F6" stroke-width="1"/>
  <path d="M295 160 L275 182 A25 25 0 0 1 295 135 Z" fill="#60A5FA" stroke="#3B82F6" stroke-width="1"/>
  
  <!-- Decorative Elements -->
  <circle cx="50" cy="50" r="10" fill="#EFF6FF" stroke="#3B82F6" stroke-width="1" opacity="0.5"/>
  <circle cx="350" cy="250" r="10" fill="#EFF6FF" stroke="#3B82F6" stroke-width="1" opacity="0.5"/>
  <path d="M35 245 L45 255 M35 255 L45 245" stroke="#3B82F6" stroke-width="1" opacity="0.5"/>
  <path d="M345 60 L355 70 M345 70 L355 60" stroke="#3B82F6" stroke-width="1" opacity="0.5"/>
</svg> 