<?xml version="1.0" encoding="UTF-8"?>
<svg width="400" height="300" viewBox="0 0 400 300" fill="none" xmlns="http://www.w3.org/2000/svg">
  <!-- Background -->
  <rect width="400" height="300" fill="#F8FAFC"/>
  
  <!-- Dashboard Frame -->
  <rect x="50" y="50" width="300" height="200" rx="8" fill="white" stroke="#3B82F6" stroke-width="2"/>
  
  <!-- Header -->
  <rect x="50" y="50" width="300" height="30" rx="8 8 0 0" fill="#3B82F6"/>
  <text x="70" y="70" font-family="Arial" font-size="14" font-weight="bold" fill="white">Data Analytics Dashboard</text>
  <circle cx="325" cy="65" r="5" fill="white"/>
  <circle cx="340" cy="65" r="5" fill="white"/>
  
  <!-- Left Panel -->
  <rect x="60" y="90" width="100" height="150" rx="4" fill="#EFF6FF"/>
  
  <!-- Bar Chart -->
  <rect x="70" y="170" width="15" height="60" rx="2" fill="#3B82F6"/>
  <rect x="90" y="150" width="15" height="80" rx="2" fill="#3B82F6"/>
  <rect x="110" y="130" width="15" height="100" rx="2" fill="#3B82F6"/>
  <rect x="130" y="180" width="15" height="50" rx="2" fill="#3B82F6"/>
  
  <!-- Chart Labels -->
  <text x="77" y="240" font-family="Arial" font-size="8" fill="#3B82F6" text-anchor="middle">Q1</text>
  <text x="97" y="240" font-family="Arial" font-size="8" fill="#3B82F6" text-anchor="middle">Q2</text>
  <text x="117" y="240" font-family="Arial" font-size="8" fill="#3B82F6" text-anchor="middle">Q3</text>
  <text x="137" y="240" font-family="Arial" font-size="8" fill="#3B82F6" text-anchor="middle">Q4</text>
  
  <!-- Chart Title -->
  <text x="110" y="110" font-family="Arial" font-size="12" font-weight="bold" fill="#3B82F6" text-anchor="middle">Quarterly Results</text>
  
  <!-- Right Top Panel - Line Chart -->
  <rect x="170" y="90" width="170" height="70" rx="4" fill="#EFF6FF"/>
  
  <!-- Line Chart Grid -->
  <line x1="180" y1="130" x2="330" y2="130" stroke="#BFDBFE" stroke-width="1"/>
  <line x1="180" y1="110" x2="330" y2="110" stroke="#BFDBFE" stroke-width="1"/>
  <line x1="180" y1="150" x2="330" y2="150" stroke="#BFDBFE" stroke-width="1"/>
  
  <!-- Line Chart Data -->
  <path d="M180 130L205 120L230 140L255 110L280 125L305 115L330 105" stroke="#3B82F6" stroke-width="2" stroke-linecap="round" stroke-linejoin="round"/>
  <circle cx="180" cy="130" r="3" fill="#3B82F6"/>
  <circle cx="205" cy="120" r="3" fill="#3B82F6"/>
  <circle cx="230" cy="140" r="3" fill="#3B82F6"/>
  <circle cx="255" cy="110" r="3" fill="#3B82F6"/>
  <circle cx="280" cy="125" r="3" fill="#3B82F6"/>
  <circle cx="305" cy="115" r="3" fill="#3B82F6"/>
  <circle cx="330" cy="105" r="3" fill="#3B82F6"/>
  
  <!-- Line Chart Title -->
  <text x="255" y="100" font-family="Arial" font-size="10" font-weight="bold" fill="#3B82F6" text-anchor="middle">Growth Trends</text>
  
  <!-- Right Bottom Panel - Pie Chart -->
  <rect x="170" y="170" width="80" height="70" rx="4" fill="#EFF6FF"/>
  
  <!-- Pie Chart -->
  <circle cx="210" cy="205" r="25" fill="white" stroke="#BFDBFE" stroke-width="1"/>
  <path d="M210 205L210 180A25 25 0 0 1 231.15 217.5L210 205Z" fill="#3B82F6"/>
  <path d="M210 205L231.15 217.5A25 25 0 0 1 188.85 217.5L210 205Z" fill="#60A5FA"/>
  <path d="M210 205L188.85 217.5A25 25 0 0 1 210 180L210 205Z" fill="#93C5FD"/>
  
  <!-- Pie Chart Legend -->
  <rect x="190" y="240" width="8" height="8" fill="#3B82F6"/>
  <text x="205" y="247" font-family="Arial" font-size="8" fill="#3B82F6">Product A</text>
  
  <rect x="220" y="240" width="8" height="8" fill="#60A5FA"/>
  <text x="235" y="247" font-family="Arial" font-size="8" fill="#3B82F6">Product B</text>
  
  <rect x="250" y="240" width="8" height="8" fill="#93C5FD"/>
  <text x="265" y="247" font-family="Arial" font-size="8" fill="#3B82F6">Product C</text>
  
  <!-- Right Bottom Panel - KPI Cards -->
  <rect x="260" y="170" width="80" height="70" rx="4" fill="#EFF6FF"/>
  
  <!-- KPI Cards -->
  <rect x="270" y="180" width="60" height="20" rx="4" fill="white" stroke="#BFDBFE" stroke-width="1"/>
  <text x="275" y="193" font-family="Arial" font-size="8" fill="#3B82F6">Revenue</text>
  <text x="325" y="195" font-family="Arial" font-size="10" font-weight="bold" fill="#3B82F6" text-anchor="end">$2.4M</text>
  
  <rect x="270" y="205" width="60" height="20" rx="4" fill="white" stroke="#BFDBFE" stroke-width="1"/>
  <text x="275" y="218" font-family="Arial" font-size="8" fill="#3B82F6">Customers</text>
  <text x="325" y="220" font-family="Arial" font-size="10" font-weight="bold" fill="#3B82F6" text-anchor="end">8.5K</text>
  
  <rect x="270" y="230" width="60" height="20" rx="4" fill="white" stroke="#BFDBFE" stroke-width="1"/>
  <text x="275" y="243" font-family="Arial" font-size="8" fill="#3B82F6">Growth</text>
  <text x="325" y="245" font-family="Arial" font-size="10" font-weight="bold" fill="#3B82F6" text-anchor="end">+32%</text>
  
  <!-- Decorative Elements -->
  <circle cx="30" cy="30" r="15" fill="#EFF6FF" stroke="#3B82F6" stroke-width="1.5"/>
  <text x="30" y="34" font-family="Arial" font-size="12" font-weight="bold" fill="#3B82F6" text-anchor="middle">DA</text>
  
  <path d="M370 30L372 35L377 37L372 39L370 44L368 39L363 37L368 35L370 30Z" fill="#3B82F6"/>
  <path d="M30 270L32 275L37 277L32 279L30 284L28 279L23 277L28 275L30 270Z" fill="#3B82F6"/>
  
  <!-- Title -->
  <text x="200" y="30" font-family="Arial" font-size="16" font-weight="bold" fill="#3B82F6" text-anchor="middle">Data Analytics Solutions</text>
</svg> 