<svg width="400" height="300" viewBox="0 0 400 300" fill="none" xmlns="http://www.w3.org/2000/svg">
  <!-- Background -->
  <rect width="400" height="300" fill="#F1F5F9"/>
  
  <!-- Visualization Panel -->
  <rect x="50" y="50" width="300" height="200" rx="10" fill="white" stroke="#3B82F6" stroke-width="2"/>
  
  <!-- Header Bar -->
  <rect x="50" y="50" width="300" height="30" rx="10 10 0 0" fill="#3B82F6"/>
  <text x="200" y="70" text-anchor="middle" font-family="Arial" font-size="14" fill="white">Data Visualization Dashboard</text>
  
  <!-- Chart Grid Lines -->
  <line x1="70" y1="100" x2="330" y2="100" stroke="#E2E8F0" stroke-width="1"/>
  <line x1="70" y1="130" x2="330" y2="130" stroke="#E2E8F0" stroke-width="1"/>
  <line x1="70" y1="160" x2="330" y2="160" stroke="#E2E8F0" stroke-width="1"/>
  <line x1="70" y1="190" x2="330" y2="190" stroke="#E2E8F0" stroke-width="1"/>
  <line x1="70" y1="220" x2="330" y2="220" stroke="#E2E8F0" stroke-width="1"/>
  
  <line x1="100" y1="90" x2="100" y2="230" stroke="#E2E8F0" stroke-width="1"/>
  <line x1="150" y1="90" x2="150" y2="230" stroke="#E2E8F0" stroke-width="1"/>
  <line x1="200" y1="90" x2="200" y2="230" stroke="#E2E8F0" stroke-width="1"/>
  <line x1="250" y1="90" x2="250" y2="230" stroke="#E2E8F0" stroke-width="1"/>
  <line x1="300" y1="90" x2="300" y2="230" stroke="#E2E8F0" stroke-width="1"/>
  
  <!-- Axes -->
  <line x1="70" y1="230" x2="330" y2="230" stroke="#475569" stroke-width="2"/>
  <line x1="70" y1="90" x2="70" y2="230" stroke="#475569" stroke-width="2"/>
  
  <!-- Bar Chart -->
  <rect x="85" y="180" width="20" height="50" fill="#3B82F6"/>
  <rect x="135" y="150" width="20" height="80" fill="#3B82F6"/>
  <rect x="185" y="120" width="20" height="110" fill="#3B82F6"/>
  <rect x="235" y="170" width="20" height="60" fill="#3B82F6"/>
  <rect x="285" y="140" width="20" height="90" fill="#3B82F6"/>
  
  <!-- Line Chart -->
  <path d="M95 160L145 130L195 170L245 120L295 150" stroke="#10B981" stroke-width="2" stroke-linecap="round" stroke-linejoin="round"/>
  <circle cx="95" cy="160" r="4" fill="white" stroke="#10B981" stroke-width="2"/>
  <circle cx="145" cy="130" r="4" fill="white" stroke="#10B981" stroke-width="2"/>
  <circle cx="195" cy="170" r="4" fill="white" stroke="#10B981" stroke-width="2"/>
  <circle cx="245" cy="120" r="4" fill="white" stroke="#10B981" stroke-width="2"/>
  <circle cx="295" cy="150" r="4" fill="white" stroke="#10B981" stroke-width="2"/>
  
  <!-- Pie Chart -->
  <circle cx="360" cy="150" r="25" fill="white" stroke="#3B82F6" stroke-width="1"/>
  <path d="M360 150L360 125A25 25 0 0 1 381.15 162.5L360 150Z" fill="#3B82F6"/>
  <path d="M360 150L381.15 162.5A25 25 0 0 1 346.65 171.65L360 150Z" fill="#10B981"/>
  <path d="M360 150L346.65 171.65A25 25 0 0 1 335 150L360 150Z" fill="#FBBF24"/>
  <path d="M360 150L335 150A25 25 0 0 1 360 125L360 150Z" fill="#EC4899"/>
  
  <!-- Legend -->
  <rect x="70" y="250" width="12" height="12" fill="#3B82F6"/>
  <text x="90" y="260" font-family="Arial" font-size="12" fill="#475569">Revenue</text>
  
  <rect x="150" y="250" width="12" height="12" fill="#10B981"/>
  <text x="170" y="260" font-family="Arial" font-size="12" fill="#475569">Growth</text>
  
  <!-- Decorative Elements -->
  <circle cx="35" cy="35" r="10" fill="#EFF6FF" stroke="#3B82F6" stroke-width="1"/>
  <path d="M35 30L35 40" stroke="#3B82F6" stroke-width="1.5"/>
  <path d="M30 35L40 35" stroke="#3B82F6" stroke-width="1.5"/>
  
  <path d="M370 265L372 270L377 272L372 274L370 279L368 274L363 272L368 270L370 265Z" fill="#3B82F6"/>
</svg> 