<svg width="400" height="300" viewBox="0 0 400 300" fill="none" xmlns="http://www.w3.org/2000/svg">
  <!-- Background -->
  <rect width="400" height="300" fill="#F1F5F9"/>
  
  <!-- Main Frame -->
  <rect x="50" y="50" width="300" height="200" rx="10" fill="white" stroke="#3B82F6" stroke-width="2"/>
  
  <!-- Header Bar -->
  <rect x="50" y="50" width="300" height="30" rx="10 10 0 0" fill="#3B82F6"/>
  <text x="200" y="70" text-anchor="middle" font-family="Arial" font-size="14" fill="white">Image Analyzer Tool</text>
  
  <!-- Image Area -->
  <rect x="70" y="90" width="160" height="140" rx="5" fill="#EFF6FF" stroke="#3B82F6" stroke-width="1"/>
  
  <!-- Sample Image Content -->
  <circle cx="120" cy="130" r="25" fill="#BFDBFE"/>
  <rect x="100" y="170" width="100" height="30" rx="5" fill="#BFDBFE"/>
  <polygon points="170,120 190,150 150,150" fill="#BFDBFE"/>
  
  <!-- Object Detection Frame -->
  <rect x="100" y="120" width="40" height="40" rx="2" stroke="#10B981" stroke-width="2" fill="none" stroke-dasharray="4 2"/>
  <text x="120" y="115" text-anchor="middle" font-family="Arial" font-size="10" fill="#10B981">Circle</text>
  
  <rect x="100" y="170" width="100" height="30" rx="5" stroke="#EC4899" stroke-width="2" fill="none" stroke-dasharray="4 2"/>
  <text x="150" y="210" text-anchor="middle" font-family="Arial" font-size="10" fill="#EC4899">Rectangle</text>
  
  <polygon points="170,120 190,150 150,150" stroke="#FBBF24" stroke-width="2" fill="none" stroke-dasharray="4 2"/>
  <text x="170" y="115" text-anchor="middle" font-family="Arial" font-size="10" fill="#FBBF24">Triangle</text>
  
  <!-- Analysis Panel -->
  <rect x="250" y="90" width="80" height="140" rx="5" fill="white" stroke="#3B82F6" stroke-width="1"/>
  
  <!-- Analysis Results -->
  <text x="290" y="105" text-anchor="middle" font-family="Arial" font-size="12" font-weight="bold" fill="#3B82F6">Analysis</text>
  
  <rect x="260" y="115" width="60" height="2" fill="#E2E8F0"/>
  
  <circle cx="265" cy="130" r="5" fill="#10B981"/>
  <text x="290" y="134" text-anchor="start" font-family="Arial" font-size="10" fill="#475569">Circle: 95%</text>
  
  <circle cx="265" cy="150" r="5" fill="#EC4899"/>
  <text x="290" y="154" text-anchor="start" font-family="Arial" font-size="10" fill="#475569">Rect: 87%</text>
  
  <circle cx="265" cy="170" r="5" fill="#FBBF24"/>
  <text x="290" y="174" text-anchor="start" font-family="Arial" font-size="10" fill="#475569">Tri: 92%</text>
  
  <rect x="260" y="185" width="60" height="2" fill="#E2E8F0"/>
  
  <text x="290" y="205" text-anchor="middle" font-family="Arial" font-size="10" fill="#3B82F6">3 objects</text>
  <text x="290" y="220" text-anchor="middle" font-family="Arial" font-size="10" fill="#3B82F6">detected</text>
  
  <!-- Upload Button -->
  <rect x="70" y="240" width="100" height="30" rx="15" fill="#3B82F6"/>
  <text x="120" y="260" text-anchor="middle" font-family="Arial" font-size="14" fill="white">Upload</text>
  
  <!-- Analyze Button -->
  <rect x="180" y="240" width="100" height="30" rx="15" fill="#10B981"/>
  <text x="230" y="260" text-anchor="middle" font-family="Arial" font-size="14" fill="white">Analyze</text>
  
  <!-- Settings Icon -->
  <circle cx="300" cy="255" r="15" fill="#EFF6FF" stroke="#3B82F6" stroke-width="1.5"/>
  <circle cx="300" cy="255" r="5" fill="#3B82F6"/>
  <path d="M300 240V245" stroke="#3B82F6" stroke-width="1.5"/>
  <path d="M300 265V270" stroke="#3B82F6" stroke-width="1.5"/>
  <path d="M315 255H310" stroke="#3B82F6" stroke-width="1.5"/>
  <path d="M290 255H285" stroke="#3B82F6" stroke-width="1.5"/>
  <path d="M310 245L306 249" stroke="#3B82F6" stroke-width="1.5"/>
  <path d="M294 261L290 265" stroke="#3B82F6" stroke-width="1.5"/>
  <path d="M310 265L306 261" stroke="#3B82F6" stroke-width="1.5"/>
  <path d="M294 249L290 245" stroke="#3B82F6" stroke-width="1.5"/>
</svg> 