<svg width="400" height="300" viewBox="0 0 400 300" fill="none" xmlns="http://www.w3.org/2000/svg">
  <!-- Background -->
  <rect width="400" height="300" fill="#F8FAFC"/>
  
  <!-- Title -->
  <text x="200" y="40" font-family="Arial" font-size="20" font-weight="bold" fill="#3B82F6" text-anchor="middle">Image Analyzer</text>
  
  <!-- Main Container -->
  <rect x="75" y="60" width="250" height="180" rx="8" fill="white" stroke="#3B82F6" stroke-width="2"/>
  
  <!-- Image Display Area -->
  <rect x="90" y="80" width="140" height="105" rx="4" fill="#EFF6FF" stroke="#3B82F6" stroke-width="1.5"/>
  
  <!-- Sample Image - Landscape -->
  <rect x="100" y="90" width="120" height="85" rx="3" fill="#BFDBFE"/>
  <circle cx="120" cy="110" r="10" fill="#EFF6FF"/>
  <path d="M90 165 L140 125 L170 145 L230 85" stroke="#3B82F6" stroke-width="0" fill="none"/>
  <path d="M90 165 L140 125" stroke="#3B82F6" stroke-width="0" fill="none"/>
  
  <!-- Simple landscape image -->
  <path d="M100 140 L120 120 L140 130 L160 110 L180 125 L220 90" stroke="#3B82F6" stroke-width="1.5"/>
  <path d="M100 175 L220 175 L220 140 L180 125 L160 110 L140 130 L120 120 L100 140 Z" fill="#3B82F6" opacity="0.2"/>
  <circle cx="130" cy="105" r="8" fill="#EFF6FF" stroke="#3B82F6" stroke-width="1"/>
  
  <!-- Analysis Panel -->
  <rect x="240" y="80" width="70" height="105" rx="4" fill="#EFF6FF" stroke="#3B82F6" stroke-width="1.5"/>
  
  <!-- Analysis Items -->
  <text x="275" y="95" font-family="Arial" font-size="8" fill="#3B82F6" text-anchor="middle">Analysis</text>
  
  <!-- Objects Detected -->
  <rect x="250" y="105" width="50" height="12" rx="2" fill="white" stroke="#3B82F6" stroke-width="1"/>
  <text x="275" y="114" font-family="Arial" font-size="7" fill="#3B82F6" text-anchor="middle">Landscape: 95%</text>
  
  <rect x="250" y="125" width="50" height="12" rx="2" fill="white" stroke="#3B82F6" stroke-width="1"/>
  <text x="275" y="134" font-family="Arial" font-size="7" fill="#3B82F6" text-anchor="middle">Mountains: 87%</text>
  
  <rect x="250" y="145" width="50" height="12" rx="2" fill="white" stroke="#3B82F6" stroke-width="1"/>
  <text x="275" y="154" font-family="Arial" font-size="7" fill="#3B82F6" text-anchor="middle">Sky: 92%</text>
  
  <rect x="250" y="165" width="50" height="12" rx="2" fill="white" stroke="#3B82F6" stroke-width="1"/>
  <text x="275" y="174" font-family="Arial" font-size="7" fill="#3B82F6" text-anchor="middle">Sun: 78%</text>
  
  <!-- Tags Section -->
  <rect x="90" y="195" width="220" height="35" rx="4" fill="#EFF6FF" stroke="#3B82F6" stroke-width="1.5"/>
  
  <!-- Tags -->
  <rect x="100" y="205" width="50" height="15" rx="7.5" fill="white" stroke="#3B82F6" stroke-width="1"/>
  <text x="125" y="215" font-family="Arial" font-size="8" fill="#3B82F6" text-anchor="middle">Outdoor</text>
  
  <rect x="160" y="205" width="50" height="15" rx="7.5" fill="white" stroke="#3B82F6" stroke-width="1"/>
  <text x="185" y="215" font-family="Arial" font-size="8" fill="#3B82F6" text-anchor="middle">Nature</text>
  
  <rect x="220" y="205" width="50" height="15" rx="7.5" fill="white" stroke="#3B82F6" stroke-width="1"/>
  <text x="245" y="215" font-family="Arial" font-size="8" fill="#3B82F6" text-anchor="middle">Sunny</text>
  
  <!-- Decorative Elements -->
  <circle cx="50" cy="50" r="10" fill="#EFF6FF" stroke="#3B82F6" stroke-width="1" opacity="0.5"/>
  <circle cx="350" cy="250" r="10" fill="#EFF6FF" stroke="#3B82F6" stroke-width="1" opacity="0.5"/>
  <path d="M35 245 L45 255 M35 255 L45 245" stroke="#3B82F6" stroke-width="1" opacity="0.5"/>
  <path d="M345 60 L355 70 M345 70 L355 60" stroke="#3B82F6" stroke-width="1" opacity="0.5"/>
</svg> 