<?xml version="1.0" encoding="UTF-8"?>
<svg width="400" height="300" viewBox="0 0 400 300" fill="none" xmlns="http://www.w3.org/2000/svg">
  <!-- Background -->
  <rect width="400" height="300" fill="#F8FAFC"/>
  
  <!-- Main Mobile Phone -->
  <rect x="150" y="40" width="100" height="220" rx="15" fill="white" stroke="#3B82F6" stroke-width="2"/>
  
  <!-- Screen -->
  <rect x="160" y="60" width="80" height="180" rx="4" fill="#DBEAFE"/>
  
  <!-- Home Button -->
  <circle cx="200" cy="250" r="10" fill="white" stroke="#3B82F6" stroke-width="1.5"/>
  
  <!-- App Icons -->
  <rect x="170" y="80" width="25" height="25" rx="6" fill="#3B82F6"/>
  <rect x="205" y="80" width="25" height="25" rx="6" fill="#60A5FA"/>
  <rect x="170" y="115" width="25" height="25" rx="6" fill="#93C5FD"/>
  <rect x="205" y="115" width="25" height="25" rx="6" fill="#3B82F6"/>
  
  <!-- Menu Bar -->
  <rect x="170" y="150" width="60" height="10" rx="2" fill="#3B82F6"/>
  <rect x="170" y="170" width="40" height="10" rx="2" fill="#3B82F6"/>
  <rect x="170" y="190" width="50" height="10" rx="2" fill="#3B82F6"/>
  <rect x="170" y="210" width="30" height="10" rx="2" fill="#3B82F6"/>
  
  <!-- Tablet -->
  <rect x="270" y="90" width="120" height="150" rx="8" fill="white" stroke="#3B82F6" stroke-width="2"/>
  <rect x="280" y="100" width="100" height="120" rx="4" fill="#DBEAFE"/>
  <circle cx="330" cy="230" r="8" fill="white" stroke="#3B82F6" stroke-width="1"/>
  
  <!-- Smartwatch -->
  <rect x="80" y="110" width="50" height="60" rx="10" fill="white" stroke="#3B82F6" stroke-width="2"/>
  <rect x="85" y="115" width="40" height="50" rx="6" fill="#DBEAFE"/>
  <rect x="95" y="170" width="20" height="15" rx="2" fill="#3B82F6"/>
  <rect x="95" y="95" width="20" height="15" rx="2" fill="#3B82F6"/>
  
  <!-- App Elements -->
  <rect x="290" y="110" width="25" height="25" rx="4" fill="#3B82F6"/>
  <rect x="325" y="110" width="25" height="25" rx="4" fill="#60A5FA"/>
  <rect x="290" y="145" width="80" height="8" rx="2" fill="#3B82F6"/>
  <rect x="290" y="160" width="60" height="8" rx="2" fill="#3B82F6"/>
  <rect x="290" y="175" width="70" height="8" rx="2" fill="#3B82F6"/>
  <rect x="290" y="190" width="50" height="8" rx="2" fill="#3B82F6"/>
  
  <!-- Decorative Elements -->
  <circle cx="50" cy="70" r="20" fill="#EFF6FF" stroke="#3B82F6" stroke-width="1.5"/>
  <path d="M40 70L50 80L60 60" stroke="#3B82F6" stroke-width="2" stroke-linecap="round" stroke-linejoin="round"/>
  
  <circle cx="50" cy="200" r="15" fill="#EFF6FF" stroke="#3B82F6" stroke-width="1.5"/>
  <path d="M42 200H58" stroke="#3B82F6" stroke-width="2" stroke-linecap="round"/>
  <path d="M50 192V208" stroke="#3B82F6" stroke-width="2" stroke-linecap="round"/>
  
  <path d="M340 50L342 55L347 57L342 59L340 64L338 59L333 57L338 55L340 50Z" fill="#3B82F6"/>
  <path d="M70 250L72 255L77 257L72 259L70 264L68 259L63 257L68 255L70 250Z" fill="#3B82F6"/>
  
  <!-- Title -->
  <text x="200" y="30" font-family="Arial" font-size="16" font-weight="bold" fill="#3B82F6" text-anchor="middle">Mobile App Development</text>
</svg> 