<?xml version="1.0" encoding="UTF-8"?>
<svg width="400" height="300" viewBox="0 0 400 300" fill="none" xmlns="http://www.w3.org/2000/svg">
  <!-- Background -->
  <rect width="400" height="300" fill="#F8FAFC"/>
  
  <!-- Phone Frame -->
  <rect x="150" y="50" width="100" height="180" rx="10" fill="white" stroke="#3B82F6" stroke-width="2"/>
  
  <!-- Phone Screen -->
  <rect x="155" y="60" width="90" height="160" rx="5" fill="#F1F5F9"/>
  
  <!-- App Icons -->
  <rect x="165" y="70" width="20" height="20" rx="4" fill="#3B82F6"/>
  <rect x="195" y="70" width="20" height="20" rx="4" fill="#3B82F6"/>
  <rect x="165" y="100" width="20" height="20" rx="4" fill="#3B82F6"/>
  <rect x="195" y="100" width="20" height="20" rx="4" fill="#3B82F6"/>
  
  <!-- App Content -->
  <rect x="165" y="130" width="70" height="10" rx="2" fill="#3B82F6"/>
  <rect x="165" y="145" width="50" height="10" rx="2" fill="#3B82F6"/>
  <rect x="165" y="160" width="60" height="10" rx="2" fill="#3B82F6"/>
  
  <!-- Code Elements -->
  <rect x="50" y="50" width="80" height="60" rx="4" fill="#E2E8F0"/>
  <rect x="55" y="55" width="40" height="4" rx="2" fill="#3B82F6"/>
  <rect x="55" y="65" width="60" height="4" rx="2" fill="#3B82F6"/>
  <rect x="55" y="75" width="50" height="4" rx="2" fill="#3B82F6"/>
  <rect x="55" y="85" width="45" height="4" rx="2" fill="#3B82F6"/>
  <rect x="55" y="95" width="55" height="4" rx="2" fill="#3B82F6"/>
  
  <!-- Decorative Elements -->
  <circle cx="270" cy="80" r="15" fill="#E2E8F0"/>
  <circle cx="270" cy="120" r="10" fill="#E2E8F0"/>
  <circle cx="270" cy="160" r="20" fill="#E2E8F0"/>
  
  <!-- Title -->
  <text x="200" y="30" text-anchor="middle" font-family="Arial" font-size="16" font-weight="bold" fill="#3B82F6">Mobile App Development</text>
</svg> 