<svg width="400" height="300" viewBox="0 0 400 300" fill="none" xmlns="http://www.w3.org/2000/svg">
  <!-- Background -->
  <rect width="400" height="300" fill="#F8FAFC"/>
  
  <!-- Title -->
  <text x="200" y="40" font-family="Arial" font-size="20" font-weight="bold" fill="#3B82F6" text-anchor="middle">Predictive Analytics</text>
  
  <!-- Main Container -->
  <rect x="75" y="60" width="250" height="180" rx="8" fill="white" stroke="#3B82F6" stroke-width="2"/>
  
  <!-- Graph Area -->
  <rect x="90" y="75" width="220" height="150" rx="4" fill="#EFF6FF" stroke="#3B82F6" stroke-width="1.5"/>
  
  <!-- Y-Axis -->
  <line x1="110" y1="85" x2="110" y2="210" stroke="#3B82F6" stroke-width="1.5"/>
  
  <!-- Y-Axis Ticks -->
  <line x1="105" y1="100" x2="110" y2="100" stroke="#3B82F6" stroke-width="1"/>
  <line x1="105" y1="130" x2="110" y2="130" stroke="#3B82F6" stroke-width="1"/>
  <line x1="105" y1="160" x2="110" y2="160" stroke="#3B82F6" stroke-width="1"/>
  <line x1="105" y1="190" x2="110" y2="190" stroke="#3B82F6" stroke-width="1"/>
  
  <!-- X-Axis -->
  <line x1="110" y1="210" x2="290" y2="210" stroke="#3B82F6" stroke-width="1.5"/>
  
  <!-- X-Axis Ticks -->
  <line x1="140" y1="210" x2="140" y2="215" stroke="#3B82F6" stroke-width="1"/>
  <line x1="170" y1="210" x2="170" y2="215" stroke="#3B82F6" stroke-width="1"/>
  <line x1="200" y1="210" x2="200" y2="215" stroke="#3B82F6" stroke-width="1"/>
  <line x1="230" y1="210" x2="230" y2="215" stroke="#3B82F6" stroke-width="1"/>
  <line x1="260" y1="210" x2="260" y2="215" stroke="#3B82F6" stroke-width="1"/>
  
  <!-- Grid Lines -->
  <line x1="110" y1="130" x2="290" y2="130" stroke="#3B82F6" stroke-width="0.5" stroke-dasharray="4 4"/>
  <line x1="110" y1="160" x2="290" y2="160" stroke="#3B82F6" stroke-width="0.5" stroke-dasharray="4 4"/>
  <line x1="110" y1="190" x2="290" y2="190" stroke="#3B82F6" stroke-width="0.5" stroke-dasharray="4 4"/>
  <line x1="170" y1="85" x2="170" y2="210" stroke="#3B82F6" stroke-width="0.5" stroke-dasharray="4 4"/>
  <line x1="230" y1="85" x2="230" y2="210" stroke="#3B82F6" stroke-width="0.5" stroke-dasharray="4 4"/>
  
  <!-- Historical Data Line -->
  <path d="M110 180 L140 170 L170 150 L200 160 L230 130" stroke="#3B82F6" stroke-width="2" stroke-linejoin="round"/>
  <circle cx="110" cy="180" r="3" fill="white" stroke="#3B82F6" stroke-width="1.5"/>
  <circle cx="140" cy="170" r="3" fill="white" stroke="#3B82F6" stroke-width="1.5"/>
  <circle cx="170" cy="150" r="3" fill="white" stroke="#3B82F6" stroke-width="1.5"/>
  <circle cx="200" cy="160" r="3" fill="white" stroke="#3B82F6" stroke-width="1.5"/>
  <circle cx="230" cy="130" r="3" fill="white" stroke="#3B82F6" stroke-width="1.5"/>
  
  <!-- Predicted Data Line -->
  <path d="M230 130 L260 110 L290 100" stroke="#3B82F6" stroke-width="2" stroke-dasharray="5 3" stroke-linejoin="round"/>
  <circle cx="260" cy="110" r="3" fill="#BFDBFE" stroke="#3B82F6" stroke-width="1.5"/>
  <circle cx="290" cy="100" r="3" fill="#BFDBFE" stroke="#3B82F6" stroke-width="1.5"/>
  
  <!-- Prediction Confidence Area -->
  <path d="M230 130 L260 110 L290 100 L290 140 L260 130 L230 150 Z" fill="#3B82F6" fill-opacity="0.1" stroke="none"/>
  
  <!-- Lower Bound -->
  <path d="M230 150 L260 130 L290 140" stroke="#3B82F6" stroke-width="1" stroke-dasharray="3 2" stroke-opacity="0.7"/>
  
  <!-- Upper Bound -->
  <path d="M230 110 L260 90 L290 85" stroke="#3B82F6" stroke-width="1" stroke-dasharray="3 2" stroke-opacity="0.7"/>
  
  <!-- Legend -->
  <rect x="130" y="95" width="10" height="3" rx="1" fill="#3B82F6"/>
  <text x="145" y="98" font-family="Arial" font-size="8" fill="#3B82F6">Historical</text>
  
  <rect x="200" y="95" width="10" height="3" rx="1" fill="#3B82F6" stroke-dasharray="5 3"/>
  <text x="215" y="98" font-family="Arial" font-size="8" fill="#3B82F6">Predicted</text>
  
  <!-- Now vs Future Indicator -->
  <line x1="230" y1="85" x2="230" y2="210" stroke="#3B82F6" stroke-width="1" stroke-dasharray="8 2"/>
  <text x="230" y="225" font-family="Arial" font-size="8" fill="#3B82F6" text-anchor="middle">NOW</text>
  
  <!-- Machine Learning Icon -->
  <circle cx="260" cy="170" r="15" fill="#EFF6FF" stroke="#3B82F6" stroke-width="1"/>
  <circle cx="253" cy="165" r="2" fill="#3B82F6"/>
  <circle cx="267" cy="165" r="2" fill="#3B82F6"/>
  <path d="M253 175 Q260 180 267 175" stroke="#3B82F6" stroke-width="1.5" fill="none"/>
  <path d="M245 165 L250 161 L245 157" stroke="#3B82F6" stroke-width="1" fill="none"/>
  <path d="M275 165 L270 161 L275 157" stroke="#3B82F6" stroke-width="1" fill="none"/>
  
  <!-- Decorative Elements -->
  <circle cx="50" cy="50" r="10" fill="#EFF6FF" stroke="#3B82F6" stroke-width="1" opacity="0.5"/>
  <circle cx="350" cy="250" r="10" fill="#EFF6FF" stroke="#3B82F6" stroke-width="1" opacity="0.5"/>
  <path d="M35 245 L45 255 M35 255 L45 245" stroke="#3B82F6" stroke-width="1" opacity="0.5"/>
  <path d="M345 60 L355 70 M345 70 L355 60" stroke="#3B82F6" stroke-width="1" opacity="0.5"/>
</svg> 