<?xml version="1.0" encoding="UTF-8"?>
<svg width="400" height="300" viewBox="0 0 400 300" fill="none" xmlns="http://www.w3.org/2000/svg">
  <!-- Background -->
  <rect width="400" height="300" fill="#F8FAFC"/>
  
  <!-- Main Design Screen -->
  <rect x="50" y="50" width="300" height="200" rx="10" fill="white" stroke="#3B82F6" stroke-width="2"/>
  
  <!-- Toolbar -->
  <rect x="50" y="50" width="300" height="30" rx="10 10 0 0" fill="#3B82F6"/>
  <circle cx="65" cy="65" r="5" fill="white"/>
  <circle cx="80" cy="65" r="5" fill="white"/>
  <circle cx="95" cy="65" r="5" fill="white"/>
  
  <!-- Design Elements -->
  <rect x="70" y="100" width="120" height="80" rx="5" fill="#EFF6FF" stroke="#3B82F6" stroke-width="1.5"/>
  <rect x="80" y="110" width="100" height="10" rx="2" fill="#3B82F6"/>
  <rect x="80" y="130" width="80" height="6" rx="2" fill="#BFDBFE"/>
  <rect x="80" y="145" width="60" height="6" rx="2" fill="#BFDBFE"/>
  <rect x="80" y="160" width="40" height="20" rx="4" fill="#3B82F6"/>
  <text x="100" y="173" font-family="Arial" font-size="10" fill="white" text-anchor="middle">Button</text>
  
  <!-- Mobile Design Preview -->
  <rect x="210" y="90" width="60" height="120" rx="8" fill="#EFF6FF" stroke="#3B82F6" stroke-width="1.5"/>
  <rect x="210" y="90" width="60" height="15" rx="8 8 0 0" fill="#3B82F6"/>
  <rect x="215" y="110" width="50" height="6" rx="2" fill="#BFDBFE"/>
  <rect x="215" y="120" width="40" height="6" rx="2" fill="#BFDBFE"/>
  <rect x="215" y="130" width="30" height="6" rx="2" fill="#BFDBFE"/>
  <rect x="215" y="160" width="50" height="30" rx="2" fill="#BFDBFE" stroke="#93C5FD" stroke-width="1"/>
  <circle cx="235" cy="175" r="10" fill="#3B82F6"/>
  <circle cx="235" cy="175" r="4" fill="white"/>
  <rect x="225" y="195" width="30" height="10" rx="4" fill="#3B82F6"/>
  
  <!-- Color Palette -->
  <rect x="290" y="100" width="40" height="130" rx="5" fill="#EFF6FF" stroke="#3B82F6" stroke-width="1.5"/>
  <circle cx="310" cy="115" r="10" fill="#3B82F6"/>
  <circle cx="310" cy="140" r="10" fill="#60A5FA"/>
  <circle cx="310" cy="165" r="10" fill="#93C5FD"/>
  <circle cx="310" cy="190" r="10" fill="#BFDBFE"/>
  <circle cx="310" cy="215" r="10" fill="#EFF6FF" stroke="#3B82F6" stroke-width="1"/>
  
  <!-- Design Tools -->
  <rect x="70" y="190" width="120" height="40" rx="5" fill="#EFF6FF" stroke="#3B82F6" stroke-width="1.5"/>
  <rect x="80" y="200" width="20" height="20" rx="4" fill="#3B82F6"/>
  <rect x="110" y="200" width="20" height="20" rx="4" fill="#60A5FA"/>
  <rect x="140" y="200" width="20" height="20" rx="4" fill="#93C5FD"/>
  <circle cx="80" cy="200" r="5" fill="white"/>
  <line x1="110" y1="205" x2="130" y2="215" stroke="white" stroke-width="2"/>
  <path d="M140 200L160 220" stroke="white" stroke-width="2" stroke-linecap="round" stroke-dasharray="2 1"/>
  
  <!-- Decorative Elements -->
  <path d="M30 30L32 35L37 37L32 39L30 44L28 39L23 37L28 35L30 30Z" fill="#3B82F6"/>
  <path d="M370 30L372 35L377 37L372 39L370 44L368 39L363 37L368 35L370 30Z" fill="#3B82F6"/>
  <path d="M370 270L372 275L377 277L372 279L370 284L368 279L363 277L368 275L370 270Z" fill="#3B82F6"/>
  <path d="M30 270L32 275L37 277L32 279L30 284L28 279L23 277L28 275L30 270Z" fill="#3B82F6"/>
  
  <!-- Title -->
  <text x="200" y="30" font-family="Arial" font-size="16" font-weight="bold" fill="#3B82F6" text-anchor="middle">UI/UX Design</text>
</svg> 