<?xml version="1.0" encoding="UTF-8"?>
<svg width="400" height="300" viewBox="0 0 400 300" fill="none" xmlns="http://www.w3.org/2000/svg">
  <!-- Background -->
  <rect width="400" height="300" fill="#F8FAFC"/>
  
  <!-- Main Design Screen -->
  <rect x="100" y="50" width="200" height="200" rx="8" fill="white" stroke="#3B82F6" stroke-width="2"/>
  
  <!-- Toolbar -->
  <rect x="100" y="50" width="200" height="30" rx="8 8 0 0" fill="#3B82F6"/>
  <circle cx="115" cy="65" r="5" fill="white"/>
  <circle cx="130" cy="65" r="5" fill="white"/>
  <circle cx="145" cy="65" r="5" fill="white"/>
  
  <!-- Design Elements -->
  <rect x="120" y="100" width="160" height="30" rx="5" fill="#EFF6FF"/>
  <rect x="120" y="140" width="70" height="80" rx="5" fill="#EFF6FF"/>
  <rect x="210" y="140" width="70" height="80" rx="5" fill="#EFF6FF"/>
  
  <!-- Decorative Elements -->
  <rect x="130" y="110" width="80" height="10" rx="2" fill="#3B82F6"/>
  <rect x="220" y="110" width="30" height="10" rx="2" fill="#3B82F6"/>
  
  <circle cx="155" cy="180" r="20" fill="#3B82F6"/>
  <rect x="220" cy="170" width="50" height="8" rx="2" fill="#3B82F6"/>
  <rect x="220" cy="185" width="40" height="8" rx="2" fill="#3B82F6"/>
  <rect x="220" cy="200" width="30" height="8" rx="2" fill="#3B82F6"/>
  
  <!-- Color Palette -->
  <circle cx="340" cy="80" r="15" fill="#3B82F6"/>
  <circle cx="340" cy="120" r="15" fill="#10B981"/>
  <circle cx="340" cy="160" r="15" fill="#F59E0B"/>
  <circle cx="340" cy="200" r="15" fill="#EF4444"/>
  
  <!-- Design Tools -->
  <rect x="50" y="70" width="30" height="160" rx="5" fill="#F1F5F9" stroke="#3B82F6" stroke-width="1"/>
  <rect x="55" y="80" width="20" height="20" rx="4" fill="#BFDBFE"/>
  <rect x="55" y="110" width="20" height="20" rx="4" fill="#BFDBFE"/>
  <rect x="55" y="140" width="20" height="20" rx="4" fill="#BFDBFE"/>
  <rect x="55" y="170" width="20" height="20" rx="4" fill="#BFDBFE"/>
  <rect x="55" y="200" width="20" height="20" rx="4" fill="#BFDBFE"/>
  
  <!-- Title -->
  <text x="200" y="30" text-anchor="middle" font-family="Arial" font-size="16" font-weight="bold" fill="#3B82F6">UI/UX Design</text>
</svg> 